<svg xmlns="http://www.w3.org/2000/svg" xml:space="preserve" width="1500" height="1500" data-id="lg_g9kaLdxdF8lQTwIyLe" data-version="1" viewBox="0 0 1500 1500"><path stroke="transparent" d="M0 0h1500v1500H0z"/><g data-padding="20"><g transform="translate(-569.073 -582.736)scale(1.71898)"><rect width="411.576" height="129.95" x="161.322" y="310.855" fill="none" rx="0" ry="0" transform="translate(474.71 399.81)"/><path d="M647.84 811.27h-10.12l21.73-64.74h15.76l22.19 64.74h-10.23l-19.67-60.72Zm36.11-19.32h-33.01l.35-7.59h32.2Zm40.36 17.25h-9.43v-60.6h9.43Zm8.74 2.07h-27.02v-8.28h27.02Zm0-56.46h-27.02v-8.28h27.02Zm59.46 52.21v-60.49h9.77v64.74h-18.05l-27.26-60.49h-.23v60.49h-9.77v-64.74h16.9l28.41 60.49Zm28.75 4.25h-10.12l21.73-64.74h15.76l22.19 64.74h-10.23l-19.67-60.72Zm36.11-19.32h-33.01l.35-7.59h32.2Zm32.3 11.27v-48.41h10.47q8.28 0 14.32 2.64 6.03 2.65 9.37 7.94 3.33 5.29 3.33 13.34 0 7.59-1.89 12.36-1.9 4.77-5.47 7.47-3.56 2.71-8.51 3.68-4.94.98-11.15.98Zm47.61-24.38q0-10.81-4.88-17.94-4.89-7.13-13.8-10.75-8.92-3.62-20.99-3.62h-17.48v64.74h17.48q12.07 0 20.99-2.76 8.91-2.76 13.8-9.83 4.88-7.07 4.88-19.84m20.47 32.42h-9.66v-64.74h22.66q8.28 0 14.09 1.72 5.8 1.73 8.91 5.81 3.1 4.08 3.1 11.21 0 4.95-1.66 8.86-1.67 3.91-5.01 6.15-3.33 2.24-8.28 2.24 3.8 0 5.93 1.44 2.12 1.44 3.16 3.79 1.03 2.36 1.38 5.01.34 2.64.52 5.17.17 2.53.74 4.37.58 1.84 2.02 2.53 1.43.69 4.19-.34v5.75q-1.61 1.38-4.14 1.89-2.53.52-5.11-.34-2.59-.86-4.37-3.57-1.79-2.7-1.79-7.87 0-4.83-.4-8.05t-1.78-5.01q-1.38-1.78-4.26-2.64-2.87-.86-7.76-.92t-12.48.17Zm0-56.81v22.31h13.34q5.87 0 9.66-.75 3.8-.74 5.7-3.1 1.89-2.36 1.89-6.96 0-5.4-2.3-7.82-2.3-2.41-6.67-3.05-4.37-.63-10.81-.63Zm71.08 54.75h-9.43v-60.6h9.43Zm8.74 2.07h-27.02v-8.28h27.02Zm0-56.46h-27.02v-8.28h27.02Zm-429.245-28.095v-8.36h-8.36v-8.36h-112.86v112.86h8.36v8.36h8.36v8.36h112.86v-112.86Zm4.18 16.72h-104.5v-12.54h104.5Zm-121.22 75.24v-104.5h104.5v4.18h-100.32v100.32Zm8.36 8.36v-104.5h104.5v4.18h-100.32v100.32Zm8.36 8.36v-87.78h104.5v87.78Z"/><path d="M512.185 735.075h4.18v4.18h-4.18Zm8.36 0h4.18v4.18h-4.18Zm8.36 0h4.18v4.18h-4.18Zm-16.72 58.52h8.36v8.36h7.963q.794 2.383 1.902 4.598l-5.643 5.643 14.797 14.776 5.643-5.643q2.195 1.129 4.598 1.923v7.963h20.9v-7.963q2.383-.794 4.598-1.902l5.643 5.643 14.776-14.797-5.643-5.643q1.13-2.215 1.923-4.598h7.963v-8.36h8.36v-4.18h-96.14Zm83.6 4.18h-6.939l-.418 1.526q-.96 3.51-2.717 6.604l-.794 1.4 4.89 4.891-8.86 8.862-4.89-4.891-1.4.794q-3.074 1.756-6.606 2.717l-1.526.418v6.939h-12.54v-6.939l-1.526-.418q-3.532-.961-6.604-2.717l-1.4-.794-4.89 4.89-8.863-8.861 4.891-4.89-.773-1.4q-1.756-3.073-2.738-6.605l-.418-1.526h-6.939v-4.18h16.845c1.101 9.486 9.135 16.642 18.685 16.642s17.584-7.156 18.685-16.642h16.845Zm-49.993-4.18h28.926a14.63 14.63 0 0 1-28.926 0m-.773-11.934-13.167-13.146 13.167-13.146-2.968-2.968-16.093 16.114 16.093 16.114Zm33.44 2.968 16.093-16.114-16.093-16.114-2.968 2.968 13.167 13.146-13.167 13.146Zm-30.347-2.696 20.9-29.26 3.386 2.424-20.9 29.26Z"/></g><path fill="transparent" stroke="transparent" stroke-width="1.783" d="M250 633.244h1000v233.512H250z"/></g></svg>